<svg width="1357.001" height="410" viewBox="0 0 1357.001 410" xmlns="http://www.w3.org/2000/svg"><g id="svgGroup" stroke-linecap="round" fill-rule="evenodd" font-size="9pt" stroke="#ffffff" stroke-width="0.25mm" fill="#000000" style="stroke:#ffffff;stroke-width:0.25mm;fill:#000000"><path d="M 14 322 L 0 322 L 0 0 L 20.5 0 L 144.5 253.5 L 268 0 L 288.5 0 L 288.5 322 L 274.5 322 L 274.5 15.5 L 152.5 265.5 L 136.5 265.5 L 14 15.5 L 14 322 Z" id="0" vector-effect="non-scaling-stroke"/><path d="M 366 235 L 366 85 L 380 85 L 380 235 A 123.408 123.408 0 0 0 381.975 257.817 Q 386.166 280.066 399.25 294 A 57.846 57.846 0 0 0 421.469 308.369 Q 430.631 311.818 441.994 313.326 A 144.66 144.66 0 0 0 461 314.5 A 118.87 118.87 0 0 0 488.6 311.418 A 96.833 96.833 0 0 0 510.75 303.25 A 146.502 146.502 0 0 0 543.886 280.037 A 136.176 136.176 0 0 0 548.5 275.5 L 548.5 85 L 562.5 85 L 562.5 322 L 551 322 L 548.5 291 A 151.875 151.875 0 0 1 518.56 312.635 A 137.492 137.492 0 0 1 508.75 317.5 Q 487.5 327 453.5 327 A 121.699 121.699 0 0 1 428.082 324.512 Q 412.253 321.13 400.358 313.15 A 67.13 67.13 0 0 1 388.25 302.75 Q 368.167 280.862 366.211 243.292 A 159.491 159.491 0 0 1 366 235 Z" id="1" vector-effect="non-scaling-stroke"/><path d="M 642 398 L 642 385 A 249.381 249.381 0 0 0 681.004 393.907 A 276.78 276.78 0 0 0 685.25 394.5 Q 708 397.5 731 397.5 Q 758 397.5 777.75 394.5 A 91.861 91.861 0 0 0 789.715 391.912 Q 800.945 388.629 808 382.75 A 27.648 27.648 0 0 0 816.833 368.875 Q 818.187 364.241 818.441 358.638 A 58.273 58.273 0 0 0 818.5 356 Q 818.5 335.5 806.75 327.25 Q 795 319 761.5 319 L 695.5 319 A 192.703 192.703 0 0 1 679.026 318.347 Q 662.786 316.948 652.626 312.55 A 40.063 40.063 0 0 1 647.25 309.75 A 30.271 30.271 0 0 1 633.019 287.622 A 46.856 46.856 0 0 1 632.5 280.5 Q 632.5 266 644.25 254.25 A 51.462 51.462 0 0 1 658.038 244.568 Q 664.232 241.515 671.835 239.458 A 101.368 101.368 0 0 1 678 238 A 67.644 67.644 0 0 1 661.77 229.973 A 49.947 49.947 0 0 1 644.25 209.25 A 103.321 103.321 0 0 1 635.339 173.723 A 123.712 123.712 0 0 1 635 164.5 A 130.246 130.246 0 0 1 637.027 140.699 Q 639.465 127.605 644.835 117.443 A 60.031 60.031 0 0 1 658 100.5 Q 681 80 731 80 Q 741 80 751 81.75 Q 761 83.5 767.5 85 L 849 85 L 848 98 L 799 98 A 70.067 70.067 0 0 1 815.063 116.068 A 64.583 64.583 0 0 1 820.75 128 Q 827 145.5 827 164.5 A 123.137 123.137 0 0 1 824.834 188.398 Q 819.979 212.903 804.25 227.25 A 67.53 67.53 0 0 1 782.242 240.295 Q 763.053 247.518 734.806 247.97 A 238.19 238.19 0 0 1 731 248 Q 715 248 696 244.5 A 111.053 111.053 0 0 0 679.728 247.563 Q 668.711 250.555 660.25 255.75 Q 646.428 264.237 646.013 279.546 A 35.212 35.212 0 0 0 646 280.5 Q 646 293.367 656.286 299.621 A 26.549 26.549 0 0 0 656.5 299.75 A 30.539 30.539 0 0 0 663.383 302.629 Q 674.703 306 696 306 L 764 306 Q 796.04 306 812.984 316.212 A 45.717 45.717 0 0 1 815 317.5 A 36.941 36.941 0 0 1 830.298 339.999 Q 831.894 346.35 831.993 353.977 A 78.228 78.228 0 0 1 832 355 Q 832 378 820 389.75 A 51.431 51.431 0 0 1 806.045 399.31 Q 799.957 402.219 792.529 404.172 A 102.368 102.368 0 0 1 785.5 405.75 A 220.443 220.443 0 0 1 765.651 408.502 Q 755.869 409.438 744.779 409.789 A 435.719 435.719 0 0 1 731 410 A 448.932 448.932 0 0 1 702.453 409.13 A 354.933 354.933 0 0 1 682 407.25 Q 659.5 404.5 642 398 Z M 731 235.5 A 206.869 206.869 0 0 0 752.469 234.469 Q 774.127 232.2 787.162 224.939 A 43.839 43.839 0 0 0 795.5 219 A 48.745 48.745 0 0 0 807.805 200.447 Q 810.919 192.478 812.331 182.474 A 128.98 128.98 0 0 0 813.5 164.5 A 120.307 120.307 0 0 0 811.997 144.786 Q 810.257 134.334 806.501 126.109 A 49.567 49.567 0 0 0 794.5 109.5 Q 776.935 93.784 737.578 92.597 A 218.226 218.226 0 0 0 731 92.5 A 186.589 186.589 0 0 0 709.371 93.664 Q 681.887 96.883 667.75 109 A 48.773 48.773 0 0 0 654.257 128.573 Q 651.024 136.771 649.607 147.09 A 128.215 128.215 0 0 0 648.5 164.5 A 115.57 115.57 0 0 0 650.098 184.415 Q 653.9 206.104 666.75 218.25 Q 683.128 233.73 721.854 235.318 A 223.356 223.356 0 0 0 731 235.5 Z" id="2" vector-effect="non-scaling-stroke"/><path d="M 1090.5 172 L 1090.5 213 L 905.5 213 A 204.956 204.956 0 0 0 907.533 237.07 Q 909.321 249.129 912.601 259.252 A 101.001 101.001 0 0 0 916.75 270 Q 927 292.5 950.25 303.5 Q 966.916 311.385 991.93 313.618 A 237.464 237.464 0 0 0 1013 314.5 A 159.074 159.074 0 0 0 1062.893 306.248 A 187.895 187.895 0 0 0 1074.5 302 L 1074.5 315 Q 1044 327 1010.5 327 Q 945.5 327 918.5 296.75 Q 891.5 266.5 891.5 201.5 A 216.577 216.577 0 0 1 894.111 166.758 Q 899.457 133.918 915.75 112.25 A 74.195 74.195 0 0 1 950.9 87.086 Q 970.547 80 997.5 80 A 146.436 146.436 0 0 1 1018.966 81.477 Q 1030.244 83.151 1039.511 86.723 A 70.691 70.691 0 0 1 1051.25 92.5 Q 1071.5 105 1081 126 A 108.202 108.202 0 0 1 1090.312 165.048 A 127.348 127.348 0 0 1 1090.5 172 Z M 905.5 200 L 1076.5 200 L 1076.5 174 A 118.723 118.723 0 0 0 1074.078 149.311 Q 1070.639 133.129 1062.312 120.79 A 70.988 70.988 0 0 0 1057.75 114.75 A 57.401 57.401 0 0 0 1032.366 97.72 Q 1022.734 94.315 1010.832 93.131 A 134.81 134.81 0 0 0 997.5 92.5 Q 946 92.5 925.75 121.25 Q 905.5 150 905.5 200 Z" id="3" vector-effect="non-scaling-stroke"/><path d="M 1174.5 322 L 1160.5 322 L 1160.5 85 L 1172 85 L 1174.5 116 Q 1193.5 99.5 1217 89.75 Q 1237.237 81.354 1265.26 80.188 A 222.337 222.337 0 0 1 1274.5 80 Q 1317.5 80 1337.25 100 Q 1352.019 114.955 1355.744 143.051 A 155.924 155.924 0 0 1 1357 163.5 L 1357 322 L 1343 322 L 1343 163.5 Q 1343 137.5 1336.25 122 A 41.997 41.997 0 0 0 1314.022 99.946 A 54.428 54.428 0 0 0 1313 99.5 A 73.051 73.051 0 0 0 1300.12 95.515 Q 1286.796 92.596 1268.223 92.503 A 245.229 245.229 0 0 0 1267 92.5 A 124.261 124.261 0 0 0 1229.85 97.938 A 113.208 113.208 0 0 0 1215.5 103.5 A 150.48 150.48 0 0 0 1179.111 127.217 A 140.577 140.577 0 0 0 1174.5 131.5 L 1174.5 322 Z" id="4" vector-effect="non-scaling-stroke"/></g></svg>